# xmcd
# 
# Track frame offsets:
#     150
#     28068
#     48858
# 
# Disc length: 852
# 
# Revision: 0
# Processed by: cddbd v1.5.2PL0 Copyright (c) Steve Scherf et al.
# Submitted via: fre:ac v1.1beta1pre4
# 
DISCID=1c035203
DTITLE=VAMPIRE WEEKEND - CONTRA MEGAMELT
DYEAR=1989
DGENRE=Soul
TTITLE0=CONTRAMELT A
TTITLE1=CONTRAMELT B
TTITLE2=COUSINZ (TOY  SELECTAH MEX-MORE REMIX)
EXTD=YEAR: 1989
EXTT0=
EXTT1=
EXTT2=
PLAYORDER=
